{
  "accessors": [
    {
      "bufferView": 2,
      "componentType": 5126,
      "count": 145,
      "max": [
        0.0064564109779894352,
        -0.0050166789442300797,
        0.0528702512383461
      ],
      "min": [
        -0.0015435890527442098,
        -0.020016679540276527,
        0.044870249927043915
      ],
      "type": "VEC3"
    },
    {
      "bufferView": 2,
      "byteOffset": 1740,
      "componentType": 5126,
      "count": 145,
      "max": [
        1,
        1,
        1
      ],
      "min": [
        -1,
        -0.57735025882720947,
        -1
      ],
      "type": "VEC3"
    },
    {
      "bufferView": 3,
      "componentType": 5126,
      "count": 145,
      "max": [
        1,
        1,
        0.6553797721862793,
        1
      ],
      "min": [
        -1,
        -1,
        -0.65779036283493042,
        1
      ],
      "type": "VEC4"
    },
    {
      "bufferView": 1,
      "componentType": 5126,
      "count": 145,
      "max": [
        1,
        1
      ],
      "min": [
        0,
        0.23333330452442169
      ],
      "type": "VEC2"
    },
    {
      "bufferView": 0,
      "componentType": 5125,
      "count": 408,
      "max": [
        144
      ],
      "min": [
        0
      ],
      "type": "SCALAR"
    },
    {
      "bufferView": 2,
      "byteOffset": 3480,
      "componentType": 5126,
      "count": 192,
      "max": [
        0.0047746328637003899,
        -0.014996680431067944,
        0.0068682250566780567
      ],
      "min": [
        0.00013818869774695486,
        -0.016016680747270584,
        0.0022317799739539623
      ],
      "type": "VEC3"
    },
    {
      "bufferView": 2,
      "byteOffset": 5784,
      "componentType": 5126,
      "count": 192,
      "max": [
        1,
        0.85133200883865356,
        1
      ],
      "min": [
        -1,
        -1,
        -1
      ],
      "type": "VEC3"
    },
    {
      "bufferView": 3,
      "byteOffset": 2320,
      "componentType": 5126,
      "count": 192,
      "max": [
        1,
        1,
        0.5,
        1
      ],
      "min": [
        -1,
        -1,
        -0.5,
        1
      ],
      "type": "VEC4"
    },
    {
      "bufferView": 1,
      "byteOffset": 1160,
      "componentType": 5126,
      "count": 192,
      "max": [
        1,
        1
      ],
      "min": [
        0,
        0
      ],
      "type": "VEC2"
    },
    {
      "bufferView": 0,
      "byteOffset": 1632,
      "componentType": 5125,
      "count": 210,
      "max": [
        191
      ],
      "min": [
        0
      ],
      "type": "SCALAR"
    },
    {
      "bufferView": 2,
      "byteOffset": 8088,
      "componentType": 5126,
      "count": 16843,
      "max": [
        0.0075449608266353607,
        -0.0059100589714944363,
        0.053153101354837418
      ],
      "min": [
        -0.0026321399491280317,
        -0.016754580661654472,
        0.00030000141123309731
      ],
      "type": "VEC3"
    },
    {
      "bufferView": 2,
      "byteOffset": 210204,
      "componentType": 5126,
      "count": 16843,
      "max": [
        1,
        1,
        1
      ],
      "min": [
        -1,
        -1,
        -1
      ],
      "type": "VEC3"
    },
    {
      "bufferView": 3,
      "byteOffset": 5392,
      "componentType": 5126,
      "count": 16843,
      "max": [
        1,
        1,
        0.80554604530334473,
        1
      ],
      "min": [
        -1,
        -1,
        -0.81254678964614868,
        -1
      ],
      "type": "VEC4"
    },
    {
      "bufferView": 1,
      "byteOffset": 2696,
      "componentType": 5126,
      "count": 16843,
      "max": [
        1,
        0.99904632568359375
      ],
      "min": [
        0,
        0
      ],
      "type": "VEC2"
    },
    {
      "bufferView": 0,
      "byteOffset": 2472,
      "componentType": 5125,
      "count": 85848,
      "max": [
        16842
      ],
      "min": [
        0
      ],
      "type": "SCALAR"
    },
    {
      "bufferView": 2,
      "byteOffset": 412320,
      "componentType": 5126,
      "count": 471,
      "max": [
        0.0075449608266353607,
        -0.014278779737651348,
        0.037940621376037598
      ],
      "min": [
        -0.0026321399491280317,
        -0.016754580661654472,
        0.00030000141123309731
      ],
      "type": "VEC3"
    },
    {
      "bufferView": 2,
      "byteOffset": 417972,
      "componentType": 5126,
      "count": 471,
      "max": [
        0.99993360042572021,
        1,
        0.99238812923431396
      ],
      "min": [
        -0.99993360042572021,
        -1,
        -0.99970990419387817
      ],
      "type": "VEC3"
    },
    {
      "bufferView": 3,
      "byteOffset": 274880,
      "componentType": 5126,
      "count": 471,
      "max": [
        1,
        1,
        0.40482816100120544,
        1
      ],
      "min": [
        -1,
        -1,
        -0.40482816100120544,
        1
      ],
      "type": "VEC4"
    },
    {
      "bufferView": 1,
      "byteOffset": 137440,
      "componentType": 5126,
      "count": 471,
      "max": [
        0.634998619556427,
        1
      ],
      "min": [
        0.36500141024589539,
        0.034170988947153091
      ],
      "type": "VEC2"
    },
    {
      "bufferView": 0,
      "byteOffset": 345864,
      "componentType": 5125,
      "count": 1470,
      "max": [
        470
      ],
      "min": [
        0
      ],
      "type": "SCALAR"
    },
    {
      "bufferView": 2,
      "byteOffset": 423624,
      "componentType": 5126,
      "count": 263,
      "max": [
        0.0067392541095614433,
        -0.0061550489626824856,
        0.053153101354837418
      ],
      "min": [
        -0.0018264319514855742,
        -0.016016680747270584,
        0.044587410986423492
      ],
      "type": "VEC3"
    },
    {
      "bufferView": 2,
      "byteOffset": 426780,
      "componentType": 5126,
      "count": 263,
      "max": [
        0.7071068286895752,
        1,
        1
      ],
      "min": [
        -0.7071068286895752,
        -1,
        -1
      ],
      "type": "VEC3"
    },
    {
      "bufferView": 3,
      "byteOffset": 282416,
      "componentType": 5126,
      "count": 263,
      "max": [
        1,
        0.66312253475189209,
        0.8177381157875061,
        1
      ],
      "min": [
        -1,
        -0.76190131902694702,
        -0.71484553813934326,
        -1
      ],
      "type": "VEC4"
    },
    {
      "bufferView": 1,
      "byteOffset": 141208,
      "componentType": 5126,
      "count": 263,
      "max": [
        0.93429362773895264,
        0.93028539419174194
      ],
      "min": [
        0.065706372261047363,
        0.011481169611215591
      ],
      "type": "VEC2"
    },
    {
      "bufferView": 0,
      "byteOffset": 351744,
      "componentType": 5125,
      "count": 756,
      "max": [
        262
      ],
      "min": [
        0
      ],
      "type": "SCALAR"
    }
  ],
  "asset": {
    "extras": {
      "author": "David_Boc (https://sketchfab.com/David_Boc)",
      "license": "CC-BY-4.0 (http://creativecommons.org/licenses/by/4.0/)",
      "source": "https://sketchfab.com/models/36e269a8f74143a3b567f582781acaa2",
      "title": "Louboutin Earring"
    },
    "generator": "Sketchfab-3.39.2",
    "version": "2.0"
  },
  "bufferViews": [
    {
      "buffer": 0,
      "byteLength": 354768,
      "byteOffset": 0,
      "name": "floatBufferViews",
      "target": 34963
    },
    {
      "buffer": 0,
      "byteLength": 143312,
      "byteOffset": 354768,
      "byteStride": 8,
      "name": "floatBufferViews",
      "target": 34962
    },
    {
      "buffer": 0,
      "byteLength": 429936,
      "byteOffset": 498080,
      "byteStride": 12,
      "name": "floatBufferViews",
      "target": 34962
    },
    {
      "buffer": 0,
      "byteLength": 286624,
      "byteOffset": 928016,
      "byteStride": 16,
      "name": "floatBufferViews",
      "target": 34962
    }
  ],
  "buffers": [
    {
      "byteLength": 1214640,
      "uri": "scene.bin"
    }
  ],
  "images": [
    {
      "uri": "textures/yellow_high_gloss_plastic_baseColor.jpeg"
    },
    {
      "uri": "textures/red_high_gloss_plastic_baseColor.jpeg"
    },
    {
      "uri": "textures/black_high_gloss_plastic_baseColor.jpeg"
    },
    {
      "uri": "textures/blue_high_gloss_plastic_baseColor.jpeg"
    },
    {
      "uri": "textures/blue_high_gloss_plastic_emissive.jpeg"
    },
    {
      "uri": "textures/color_baseColor.jpeg"
    }
  ],
  "materials": [
    {
      "doubleSided": true,
      "emissiveFactor": [
        0,
        0,
        0
      ],
      "name": "black_high_gloss_plastic",
      "pbrMetallicRoughness": {
        "baseColorFactor": [
          1,
          1,
          1,
          1
        ],
        "baseColorTexture": {
          "index": 2,
          "texCoord": 0
        },
        "metallicFactor": 0,
        "roughnessFactor": 0.59999999999999998
      }
    },
    {
      "alphaMode": "BLEND",
      "doubleSided": true,
      "emissiveFactor": [
        0,
        0,
        0
      ],
      "emissiveTexture": {
        "index": 4,
        "texCoord": 0
      },
      "name": "blue_high_gloss_plastic",
      "pbrMetallicRoughness": {
        "baseColorFactor": [
          1,
          1,
          1,
          0.94999999999999996
        ],
        "baseColorTexture": {
          "index": 3,
          "texCoord": 0
        },
        "metallicFactor": 0,
        "roughnessFactor": 0.59999999999999998
      }
    },
    {
      "doubleSided": true,
      "emissiveFactor": [
        0,
        0,
        0
      ],
      "name": "color",
      "pbrMetallicRoughness": {
        "baseColorFactor": [
          1,
          1,
          1,
          1
        ],
        "baseColorTexture": {
          "index": 5,
          "texCoord": 0
        },
        "metallicFactor": 0,
        "roughnessFactor": 0.59999999999999998
      }
    },
    {
      "doubleSided": true,
      "emissiveFactor": [
        0,
        0,
        0
      ],
      "name": "red_high_gloss_plastic",
      "pbrMetallicRoughness": {
        "baseColorFactor": [
          1,
          1,
          1,
          1
        ],
        "baseColorTexture": {
          "index": 1,
          "texCoord": 0
        },
        "metallicFactor": 0,
        "roughnessFactor": 0.59999999999999998
      }
    },
    {
      "doubleSided": true,
      "emissiveFactor": [
        0,
        0,
        0
      ],
      "name": "yellow_high_gloss_plastic",
      "pbrMetallicRoughness": {
        "baseColorFactor": [
          1,
          1,
          1,
          1
        ],
        "baseColorTexture": {
          "index": 0,
          "texCoord": 0
        },
        "metallicFactor": 0,
        "roughnessFactor": 0.59999999999999998
      }
    }
  ],
  "meshes": [
    {
      "primitives": [
        {
          "attributes": {
            "NORMAL": 1,
            "POSITION": 0,
            "TANGENT": 2,
            "TEXCOORD_0": 3
          },
          "indices": 4,
          "material": 0,
          "mode": 4
        }
      ]
    },
    {
      "primitives": [
        {
          "attributes": {
            "NORMAL": 6,
            "POSITION": 5,
            "TANGENT": 7,
            "TEXCOORD_0": 8
          },
          "indices": 9,
          "material": 1,
          "mode": 4
        }
      ]
    },
    {
      "primitives": [
        {
          "attributes": {
            "NORMAL": 11,
            "POSITION": 10,
            "TANGENT": 12,
            "TEXCOORD_0": 13
          },
          "indices": 14,
          "material": 2,
          "mode": 4
        }
      ]
    },
    {
      "primitives": [
        {
          "attributes": {
            "NORMAL": 16,
            "POSITION": 15,
            "TANGENT": 17,
            "TEXCOORD_0": 18
          },
          "indices": 19,
          "material": 3,
          "mode": 4
        }
      ]
    },
    {
      "primitives": [
        {
          "attributes": {
            "NORMAL": 21,
            "POSITION": 20,
            "TANGENT": 22,
            "TEXCOORD_0": 23
          },
          "indices": 24,
          "material": 4,
          "mode": 4
        }
      ]
    }
  ],
  "nodes": [
    {
      "children": [
        1
      ],
      "name": "RootNode (gltf orientation matrix)",
      "rotation": [
        -0.70710678118654746,
        -0,
        -0,
        0.70710678118654757
      ]
    },
    {
      "children": [
        2
      ],
      "name": "RootNode (model correction matrix)"
    },
    {
      "children": [
        3,
        4,
        5,
        6,
        7
      ],
      "name": "earring v2.obj.cleaner.materialmerger.gles"
    },
    {
      "mesh": 0,
      "name": ""
    },
    {
      "mesh": 1,
      "name": ""
    },
    {
      "mesh": 2,
      "name": ""
    },
    {
      "mesh": 3,
      "name": ""
    },
    {
      "mesh": 4,
      "name": ""
    }
  ],
  "samplers": [
    {
      "magFilter": 9729,
      "minFilter": 9987,
      "wrapS": 10497,
      "wrapT": 10497
    }
  ],
  "scene": 0,
  "scenes": [
    {
      "name": "OSG_Scene",
      "nodes": [
        0
      ]
    }
  ],
  "textures": [
    {
      "sampler": 0,
      "source": 0
    },
    {
      "sampler": 0,
      "source": 1
    },
    {
      "sampler": 0,
      "source": 2
    },
    {
      "sampler": 0,
      "source": 3
    },
    {
      "sampler": 0,
      "source": 4
    },
    {
      "sampler": 0,
      "source": 5
    }
  ]
}

