{
  "accessors": [
    {
      "bufferView": 1,
      "componentType": 5126,
      "count": 1630,
      "max": [
        271.38275146484375,
        113.21308898925781,
        6.703312873840332
      ],
      "min": [
        194.55828857421875,
        42.668281555175781,
        4.2559394836425781
      ],
      "type": "VEC3"
    },
    {
      "bufferView": 1,
      "byteOffset": 19560,
      "componentType": 5126,
      "count": 1630,
      "max": [
        0.99999630451202393,
        0.99986237287521362,
        1
      ],
      "min": [
        -1,
        -0.99999618530273438,
        -1
      ],
      "type": "VEC3"
    },
    {
      "bufferView": 0,
      "componentType": 5125,
      "count": 4776,
      "max": [
        1629
      ],
      "min": [
        0
      ],
      "type": "SCALAR"
    }
  ],
  "asset": {
    "extras": {
      "author": "atomjaay (https://sketchfab.com/AtomJaay)",
      "license": "CC-BY-4.0 (http://creativecommons.org/licenses/by/4.0/)",
      "source": "https://sketchfab.com/models/4aa3fe680505451bad7ef38bfecba87f",
      "title": "Deconstructed Clover Jewelry Kit"
    },
    "generator": "Sketchfab-3.18.7",
    "version": "2.0"
  },
  "bufferViews": [
    {
      "buffer": 0,
      "byteLength": 19104,
      "byteOffset": 0,
      "name": "floatBufferViews",
      "target": 34963
    },
    {
      "buffer": 0,
      "byteLength": 39120,
      "byteOffset": 19104,
      "byteStride": 12,
      "name": "floatBufferViews",
      "target": 34962
    }
  ],
  "buffers": [
    {
      "byteLength": 58224,
      "uri": "scene.bin"
    }
  ],
  "materials": [
    {
      "doubleSided": true,
      "emissiveFactor": [
        0,
        0,
        0
      ],
      "name": "Scene_-_Root",
      "pbrMetallicRoughness": {
        "baseColorFactor": [
          0.0016608529000000001,
          0.32582511289999999,
          0.0051931835000000003,
          1
        ],
        "metallicFactor": 0,
        "roughnessFactor": 0.59999999999999998
      }
    }
  ],
  "meshes": [
    {
      "primitives": [
        {
          "attributes": {
            "NORMAL": 1,
            "POSITION": 0
          },
          "indices": 2,
          "material": 0,
          "mode": 4
        }
      ]
    }
  ],
  "nodes": [
    {
      "children": [
        1
      ],
      "name": "RootNode (gltf orientation matrix)",
      "rotation": [
        -0.70710678118654746,
        -0,
        -0,
        0.70710678118654757
      ]
    },
    {
      "children": [
        2
      ],
      "matrix": [
        0,
        0,
        1,
        0,
        -1,
        0,
        0,
        0,
        0,
        -1,
        0,
        0,
        310.91094970703125,
        83.420295715332031,
        -227.49064636230469,
        1
      ],
      "name": "RootNode (model correction matrix)"
    },
    {
      "children": [
        3
      ],
      "name": "d6b8cabcf91f485abb64603dbd71c3cb.stl.cleaner.gles"
    },
    {
      "mesh": 0,
      "name": ""
    }
  ],
  "scene": 0,
  "scenes": [
    {
      "name": "OSG_Scene",
      "nodes": [
        0
      ]
    }
  ]
}

